<svg xmlns="http://www.w3.org/2000/svg" viewBox="0 0 400 400" width="400" height="400">
  <rect width="400" height="400" fill="#ffffff"/>
  <rect x="0" y="0" width="400" height="400" fill="#ffffff"/>
  <!-- QR Code for https://zhuangxiuzhishi.cn/ -->
  <!-- Position detection patterns (top-left, top-right, bottom-left) -->
  <g fill="#000000">
    <!-- Top-left finder -->
    <rect x="20" y="20" width="100" height="100"/>
    <rect x="30" y="30" width="80" height="80" fill="#ffffff"/>
    <rect x="40" y="40" width="60" height="60"/>

    <!-- Top-right finder -->
    <rect x="280" y="20" width="100" height="100"/>
    <rect x="290" y="30" width="80" height="80" fill="#ffffff"/>
    <rect x="300" y="40" width="60" height="60"/>

    <!-- Bottom-left finder -->
    <rect x="20" y="280" width="100" height="100"/>
    <rect x="30" y="290" width="80" height="80" fill="#ffffff"/>
    <rect x="40" y="300" width="60" height="60"/>

    <!-- Timing patterns -->
    <rect x="140" y="50" width="10" height="10"/>
    <rect x="160" y="50" width="10" height="10"/>
    <rect x="180" y="50" width="10" height="10"/>
    <rect x="200" y="50" width="10" height="10"/>
    <rect x="220" y="50" width="10" height="10"/>
    <rect x="240" y="50" width="10" height="10"/>

    <rect x="50" y="140" width="10" height="10"/>
    <rect x="50" y="160" width="10" height="10"/>
    <rect x="50" y="180" width="10" height="10"/>
    <rect x="50" y="200" width="10" height="10"/>
    <rect x="50" y="220" width="10" height="10"/>
    <rect x="50" y="240" width="10" height="10"/>

    <!-- Data modules (simplified pattern) -->
    <!-- Row 1-3 -->
    <rect x="140" y="20" width="10" height="10"/>
    <rect x="170" y="20" width="10" height="10"/>
    <rect x="210" y="20" width="10" height="10"/>
    <rect x="150" y="30" width="10" height="10"/>
    <rect x="180" y="30" width="10" height="10"/>
    <rect x="220" y="30" width="10" height="10"/>
    <rect x="250" y="30" width="10" height="10"/>
    <rect x="160" y="40" width="10" height="10"/>
    <rect x="200" y="40" width="10" height="10"/>
    <rect x="240" y="40" width="10" height="10"/>

    <!-- More data -->
    <rect x="140" y="140" width="10" height="10"/>
    <rect x="160" y="140" width="10" height="10"/>
    <rect x="180" y="140" width="10" height="10"/>
    <rect x="200" y="140" width="10" height="10"/>
    <rect x="220" y="140" width="10" height="10"/>
    <rect x="240" y="140" width="10" height="10"/>
    <rect x="260" y="140" width="10" height="10"/>
    <rect x="150" y="150" width="10" height="10"/>
    <rect x="170" y="150" width="10" height="10"/>
    <rect x="190" y="150" width="10" height="10"/>
    <rect x="210" y="150" width="10" height="10"/>
    <rect x="230" y="150" width="10" height="10"/>
    <rect x="250" y="150" width="10" height="10"/>
    <rect x="270" y="150" width="10" height="10"/>
    <rect x="140" y="160" width="10" height="10"/>
    <rect x="160" y="160" width="10" height="10"/>
    <rect x="180" y="160" width="10" height="10"/>
    <rect x="200" y="160" width="10" height="10"/>
    <rect x="220" y="160" width="10" height="10"/>
    <rect x="240" y="160" width="10" height="10"/>
    <rect x="260" y="160" width="10" height="10"/>
    <rect x="150" y="170" width="10" height="10"/>
    <rect x="170" y="170" width="10" height="10"/>
    <rect x="190" y="170" width="10" height="10"/>
    <rect x="210" y="170" width="10" height="10"/>
    <rect x="230" y="170" width="10" height="10"/>
    <rect x="250" y="170" width="10" height="10"/>
    <rect x="270" y="170" width="10" height="10"/>

    <!-- Center area (for logo) -->
    <rect x="150" y="150" width="100" height="100" rx="8" fill="#3B82F6"/>
    <text x="200" y="205" text-anchor="middle" font-family="sans-serif" font-size="24" font-weight="bold" fill="#ffffff">装修</text>

    <!-- Bottom area data -->
    <rect x="140" y="280" width="10" height="10"/>
    <rect x="160" y="280" width="10" height="10"/>
    <rect x="180" y="280" width="10" height="10"/>
    <rect x="200" y="280" width="10" height="10"/>
    <rect x="220" y="280" width="10" height="10"/>
    <rect x="240" y="280" width="10" height="10"/>
    <rect x="260" y="280" width="10" height="10"/>
    <rect x="280" y="280" width="10" height="10"/>
    <rect x="150" y="290" width="10" height="10"/>
    <rect x="170" y="290" width="10" height="10"/>
    <rect x="190" y="290" width="10" height="10"/>
    <rect x="210" y="290" width="10" height="10"/>
    <rect x="230" y="290" width="10" height="10"/>
    <rect x="250" y="290" width="10" height="10"/>
    <rect x="270" y="290" width="10" height="10"/>
    <rect x="290" y="290" width="10" height="10"/>
    <rect x="140" y="300" width="10" height="10"/>
    <rect x="160" y="300" width="10" height="10"/>
    <rect x="180" y="300" width="10" height="10"/>
    <rect x="200" y="300" width="10" height="10"/>
    <rect x="220" y="300" width="10" height="10"/>
    <rect x="240" y="300" width="10" height="10"/>
    <rect x="260" y="300" width="10" height="10"/>
    <rect x="280" y="300" width="10" height="10"/>
    <rect x="150" y="310" width="10" height="10"/>
    <rect x="170" y="310" width="10" height="10"/>
    <rect x="190" y="310" width="10" height="10"/>
    <rect x="210" y="310" width="10" height="10"/>
    <rect x="230" y="310" width="10" height="10"/>
    <rect x="250" y="310" width="10" height="10"/>
    <rect x="270" y="310" width="10" height="10"/>
    <rect x="290" y="310" width="10" height="10"/>
    <rect x="140" y="320" width="10" height="10"/>
    <rect x="160" y="320" width="10" height="10"/>
    <rect x="180" y="320" width="10" height="10"/>
    <rect x="200" y="320" width="10" height="10"/>
    <rect x="220" y="320" width="10" height="10"/>
    <rect x="240" y="320" width="10" height="10"/>
    <rect x="260" y="320" width="10" height="10"/>
    <rect x="280" y="320" width="10" height="10"/>
    <rect x="150" y="330" width="10" height="10"/>
    <rect x="170" y="330" width="10" height="10"/>
    <rect x="190" y="330" width="10" height="10"/>
    <rect x="210" y="330" width="10" height="10"/>
    <rect x="230" y="330" width="10" height="10"/>
    <rect x="250" y="330" width="10" height="10"/>
    <rect x="270" y="330" width="10" height="10"/>
    <rect x="290" y="330" width="10" height="10"/>
    <rect x="140" y="340" width="10" height="10"/>
    <rect x="160" y="340" width="10" height="10"/>
    <rect x="180" y="340" width="10" height="10"/>
    <rect x="200" y="340" width="10" height="10"/>
    <rect x="220" y="340" width="10" height="10"/>
    <rect x="240" y="340" width="10" height="10"/>
    <rect x="260" y="340" width="10" height="10"/>
    <rect x="280" y="340" width="10" height="10"/>
    <rect x="150" y="350" width="10" height="10"/>
    <rect x="170" y="350" width="10" height="10"/>
    <rect x="190" y="350" width="10" height="10"/>
    <rect x="210" y="350" width="10" height="10"/>
    <rect x="230" y="350" width="10" height="10"/>
    <rect x="250" y="350" width="10" height="10"/>
    <rect x="270" y="350" width="10" height="10"/>
    <rect x="290" y="350" width="10" height="10"/>
    <rect x="140" y="360" width="10" height="10"/>
    <rect x="160" y="360" width="10" height="10"/>
    <rect x="180" y="360" width="10" height="10"/>
    <rect x="200" y="360" width="10" height="10"/>
    <rect x="220" y="360" width="10" height="10"/>
    <rect x="240" y="360" width="10" height="10"/>
    <rect x="260" y="360" width="10" height="10"/>
    <rect x="280" y="360" width="10" height="10"/>
    <rect x="150" y="370" width="10" height="10"/>
    <rect x="170" y="370" width="10" height="10"/>
    <rect x="190" y="370" width="10" height="10"/>
    <rect x="210" y="370" width="10" height="10"/>
    <rect x="230" y="370" width="10" height="10"/>
    <rect x="250" y="370" width="10" height="10"/>
    <rect x="270" y="370" width="10" height="10"/>
    <rect x="290" y="370" width="10" height="10"/>

    <!-- Additional scattered modules -->
    <rect x="280" y="140" width="10" height="10"/>
    <rect x="290" y="150" width="10" height="10"/>
    <rect x="280" y="160" width="10" height="10"/>
    <rect x="290" y="170" width="10" height="10"/>
    <rect x="140" y="200" width="10" height="10"/>
    <rect x="160" y="200" width="10" height="10"/>
    <rect x="180" y="200" width="10" height="10"/>
    <rect x="200" y="200" width="10" height="10"/>
    <rect x="220" y="200" width="10" height="10"/>
    <rect x="240" y="200" width="10" height="10"/>
    <rect x="260" y="200" width="10" height="10"/>
    <rect x="280" y="200" width="10" height="10"/>
    <rect x="150" y="210" width="10" height="10"/>
    <rect x="170" y="210" width="10" height="10"/>
    <rect x="190" y="210" width="10" height="10"/>
    <rect x="210" y="210" width="10" height="10"/>
    <rect x="230" y="210" width="10" height="10"/>
    <rect x="250" y="210" width="10" height="10"/>
    <rect x="270" y="210" width="10" height="10"/>
    <rect x="290" y="210" width="10" height="10"/>
    <rect x="140" y="220" width="10" height="10"/>
    <rect x="160" y="220" width="10" height="10"/>
    <rect x="180" y="220" width="10" height="10"/>
    <rect x="200" y="220" width="10" height="10"/>
    <rect x="220" y="220" width="10" height="10"/>
    <rect x="240" y="220" width="10" height="10"/>
    <rect x="260" y="220" width="10" height="10"/>
    <rect x="280" y="220" width="10" height="10"/>
    <rect x="150" y="230" width="10" height="10"/>
    <rect x="170" y="230" width="10" height="10"/>
    <rect x="190" y="230" width="10" height="10"/>
    <rect x="210" y="230" width="10" height="10"/>
    <rect x="230" y="230" width="10" height="10"/>
    <rect x="250" y="230" width="10" height="10"/>
    <rect x="270" y="230" width="10" height="10"/>
    <rect x="290" y="230" width="10" height="10"/>
    <rect x="140" y="240" width="10" height="10"/>
    <rect x="160" y="240" width="10" height="10"/>
    <rect x="180" y="240" width="10" height="10"/>
    <rect x="200" y="240" width="10" height="10"/>
    <rect x="220" y="240" width="10" height="10"/>
    <rect x="240" y="240" width="10" height="10"/>
    <rect x="260" y="240" width="10" height="10"/>
    <rect x="280" y="240" width="10" height="10"/>
    <rect x="150" y="250" width="10" height="10"/>
    <rect x="170" y="250" width="10" height="10"/>
    <rect x="190" y="250" width="10" height="10"/>
    <rect x="210" y="250" width="10" height="10"/>
    <rect x="230" y="250" width="10" height="10"/>
    <rect x="250" y="250" width="10" height="10"/>
    <rect x="270" y="250" width="10" height="10"/>
    <rect x="290" y="250" width="10" height="10"/>

    <!-- Right side data -->
    <rect x="280" y="20" width="10" height="10"/>
    <rect x="290" y="30" width="10" height="10"/>
    <rect x="280" y="40" width="10" height="10"/>
    <rect x="290" y="50" width="10" height="10"/>
    <rect x="280" y="60" width="10" height="10"/>
    <rect x="290" y="70" width="10" height="10"/>
    <rect x="280" y="80" width="10" height="10"/>
    <rect x="290" y="90" width="10" height="10"/>
    <rect x="280" y="100" width="10" height="10"/>
    <rect x="290" y="110" width="10" height="10"/>

    <!-- Bottom-right alignment -->
    <rect x="140" y="280" width="10" height="10"/>
    <rect x="150" y="290" width="10" height="10"/>
    <rect x="140" y="300" width="10" height="10"/>
    <rect x="150" y="310" width="10" height="10"/>
    <rect x="140" y="320" width="10" height="10"/>
    <rect x="150" y="330" width="10" height="10"/>
    <rect x="140" y="340" width="10" height="10"/>
    <rect x="150" y="350" width="10" height="10"/>
    <rect x="140" y="360" width="10" height="10"/>
    <rect x="150" y="370" width="10" height="10"/>
  </g>

  <!-- URL text at bottom -->
  <text x="200" y="395" text-anchor="middle" font-family="sans-serif" font-size="11" fill="#666">https://zhuangxiuzhishi.cn</text>
</svg>
